<?xml version="1.0" encoding="UTF-8"?>
<svg version="1.1" xmlns="http://www.w3.org/2000/svg" width="510" height="396">
<path d="M0 0 C0.78674103 -0.00807175 1.57348206 -0.01614349 2.38406372 -0.02445984 C4.05012814 -0.03829779 5.71622089 -0.04902125 7.38232422 -0.05688477 C9.9286065 -0.07410576 12.47359287 -0.11799292 15.01953125 -0.16210938 C16.63801128 -0.17223577 18.25650235 -0.18075204 19.875 -0.1875 C20.6355368 -0.20500809 21.39607361 -0.22251617 22.17965698 -0.24055481 C25.49269295 -0.22697967 27.70954297 0.01732319 30.55810547 1.76196289 C32.67166788 5.22303224 32.56982042 8.35634196 32.4609375 12.28515625 C32.45527771 13.05635803 32.44961792 13.82755981 32.44378662 14.62213135 C32.42144839 17.07815404 32.37126013 19.5327018 32.3203125 21.98828125 C32.30024404 23.65622888 32.28199387 25.32419946 32.265625 26.9921875 C32.22159242 31.07478448 32.15258533 35.15628306 32.0703125 39.23828125 C33.07408936 39.22780762 34.07786621 39.21733398 35.11206055 39.20654297 C38.84867768 39.17024672 42.58527933 39.14734585 46.32202148 39.12841797 C47.93695703 39.11838229 49.5518745 39.10475074 51.16674805 39.08740234 C53.49272125 39.0630466 55.81845345 39.05177378 58.14453125 39.04296875 C58.86243332 39.03264618 59.58033539 39.02232361 60.31999207 39.01168823 C64.33493865 39.01079674 67.50740623 39.3202788 71.0703125 41.23828125 C72.6149788 44.32761384 72.254112 47.5927725 72.2734375 50.984375 C72.27913757 51.75129166 72.28483765 52.51820831 72.29071045 53.30836487 C72.3001611 54.93155537 72.30669469 56.55476507 72.31054688 58.17797852 C72.32026101 60.66261154 72.35128596 63.14642028 72.3828125 65.63085938 C72.38934177 67.20702633 72.39459254 68.78319921 72.3984375 70.359375 C72.4107843 71.10319931 72.4231311 71.84702362 72.43585205 72.61338806 C72.42378704 75.40358444 72.34440431 77.69520202 71.07397461 80.21240234 C67.76367118 81.90728415 64.31306213 81.60204228 60.68359375 81.53125 C59.86658493 81.52700516 59.04957611 81.52276031 58.20780945 81.51838684 C55.59914143 81.50159816 52.99124688 81.46394644 50.3828125 81.42578125 C48.61394345 81.41073462 46.84506229 81.39704617 45.07617188 81.38476562 C40.74058754 81.35169411 36.40558114 81.29991115 32.0703125 81.23828125 C32.08602295 82.27758789 32.1017334 83.31689453 32.11791992 84.38769531 C32.17228092 88.24910715 32.20668483 92.11048525 32.23510742 95.97216797 C32.25018004 97.64247326 32.2706417 99.31273906 32.29663086 100.98291016 C32.33308223 103.38584138 32.35005381 105.78824869 32.36328125 108.19140625 C32.37876511 108.93634338 32.39424896 109.68128052 32.41020203 110.4487915 C32.41122767 113.61915547 32.2717093 115.86896141 30.73950195 118.67871094 C27.29544281 121.89659156 23.12776852 121.41427923 18.69921875 121.44140625 C17.62111183 121.44995636 17.62111183 121.44995636 16.52122498 121.4586792 C15.00236477 121.46811548 13.48348422 121.47465773 11.96459961 121.47851562 C9.64465624 121.48823165 7.32559531 121.51927046 5.00585938 121.55078125 C3.52865108 121.55731079 2.05143647 121.56256146 0.57421875 121.56640625 C-0.11755966 121.57875305 -0.80933807 121.59109985 -1.52207947 121.6038208 C-4.46100186 121.59026617 -6.68238639 121.35438015 -9.35620117 120.09912109 C-11.58636175 117.46168372 -11.5044492 115.56412766 -11.609375 112.13671875 C-11.650625 110.92371094 -11.691875 109.71070313 -11.734375 108.4609375 C-11.75757813 107.19121094 -11.78078125 105.92148438 -11.8046875 104.61328125 C-11.85109375 103.36675781 -11.8975 102.12023437 -11.9453125 100.8359375 C-12.37500726 85.18513236 -8.14842357 74.56537983 2.5078125 62.98828125 C4.01801445 61.39480438 5.53499798 59.80757657 7.0703125 58.23828125 C-0.21781515 62.38623366 -6.17752188 66.95235851 -11.98510742 72.97363281 C-18.62634627 79.54512202 -26.27190735 81.7300582 -35.48242188 81.73632812 C-36.43439453 81.71634766 -37.38636719 81.69636719 -38.3671875 81.67578125 C-39.34623047 81.68287109 -40.32527344 81.68996094 -41.33398438 81.69726562 C-48.41730791 81.6339782 -48.41730791 81.6339782 -50.66430664 79.89868164 C-54.33069999 75.08773409 -53.15371595 68.2371987 -53.16992188 62.46923828 C-53.17962145 60.37752419 -53.21065512 58.28679588 -53.2421875 56.1953125 C-53.2487189 54.85807872 -53.25396883 53.52083795 -53.2578125 52.18359375 C-53.2671582 50.97203613 -53.27650391 49.76047852 -53.28613281 48.51220703 C-52.89629815 44.93160237 -52.13964454 43.0599575 -49.9296875 40.23828125 C-46.23428348 39.00647991 -42.82665372 39.11416013 -38.98046875 39.140625 C-38.20785202 39.14203995 -37.43523529 39.1434549 -36.63920593 39.14491272 C-34.17349361 39.15050659 -31.70787235 39.16305792 -29.2421875 39.17578125 C-27.56966277 39.18079704 -25.89713662 39.18535981 -24.22460938 39.18945312 C-20.12626704 39.20047401 -16.02799271 39.21773441 -11.9296875 39.23828125 C-11.94539795 37.77805542 -11.94539795 37.77805542 -11.96142578 36.28833008 C-11.99772956 32.6635305 -12.0206256 29.03874689 -12.03955078 25.41381836 C-12.04958476 23.84738458 -12.06321504 22.28096942 -12.08056641 20.71459961 C-12.10492975 18.45812372 -12.11619666 16.20189631 -12.125 13.9453125 C-12.13532257 13.24928421 -12.14564514 12.55325592 -12.15628052 11.83613586 C-12.15718769 7.87078146 -11.81264995 4.75923099 -9.9296875 1.23828125 C-6.79603771 -0.32854364 -3.44235343 0.03325781 0 0 Z " fill="#5FBA7A" transform="translate(90.9296875,137.76171875)"/>
<path d="M0 0 C0 0.99 0 1.98 0 3 C0.99 2.67 1.98 2.34 3 2 C3.07425143 6.76884567 3.12864936 11.5373536 3.16479492 16.30664062 C3.17986565 17.92844506 3.20032593 19.55020884 3.22631836 21.171875 C3.26277829 23.50531046 3.27974314 25.83820631 3.29296875 28.171875 C3.30845261 28.89493835 3.32393646 29.61800171 3.33988953 30.36297607 C3.34092922 33.48492487 3.1839468 35.66456959 1.66918945 38.42675781 C-1.78829854 41.68550472 -5.98474775 41.16088456 -10.44140625 41.16796875 C-11.52662819 41.17296135 -11.52662819 41.17296135 -12.6337738 41.17805481 C-14.1610348 41.18311173 -15.68830681 41.18546352 -17.21557617 41.18530273 C-19.55731214 41.18749514 -21.89858137 41.20567948 -24.24023438 41.22460938 C-25.72395672 41.22754232 -27.2076813 41.22952778 -28.69140625 41.23046875 C-29.39350723 41.23765427 -30.09560822 41.24483978 -30.81898499 41.25224304 C-35.77116636 41.22883364 -35.77116636 41.22883364 -38 39 C-37.01 39 -36.02 39 -35 39 C-34.896875 37.72125 -34.79375 36.4425 -34.6875 35.125 C-34.11866692 29.86329406 -32.6625387 25.00852854 -31 20 C-30.34 20 -29.68 20 -29 20 C-28.34 18.02 -27.68 16.04 -27 14 C-26.34 14 -25.68 14 -25 14 C-24.62875 13.071875 -24.62875 13.071875 -24.25 12.125 C-22.79371361 9.64931313 -21.62187494 9.04874998 -19 8 C-19 7.34 -19 6.68 -19 6 C-6.76334702 -0.39784394 -6.76334702 -0.39784394 0 0 Z " fill="#48B381" transform="translate(120,218)"/>
<path d="M0 0 C0.79622772 0.00141495 1.59245544 0.0028299 2.41281128 0.00428772 C4.9601413 0.0098928 7.50738397 0.02244611 10.0546875 0.03515625 C11.77994665 0.0401706 13.50520717 0.04473362 15.23046875 0.04882812 C19.46357541 0.05986388 23.69661664 0.07713189 27.9296875 0.09765625 C27.9296875 0.75765625 27.9296875 1.41765625 27.9296875 2.09765625 C27.2696875 2.09765625 26.6096875 2.09765625 25.9296875 2.09765625 C25.60097656 3.65613281 25.60097656 3.65613281 25.265625 5.24609375 C22.53815748 17.51233401 18.79441382 27.70768475 7.9296875 35.09765625 C7.2696875 35.09765625 6.6096875 35.09765625 5.9296875 35.09765625 C5.5996875 36.08765625 5.2696875 37.07765625 4.9296875 38.09765625 C-0.0203125 38.59265625 -0.0203125 38.59265625 -5.0703125 39.09765625 C-5.0703125 39.75765625 -5.0703125 40.41765625 -5.0703125 41.09765625 C-7.7103125 41.09765625 -10.3503125 41.09765625 -13.0703125 41.09765625 C-12.97652555 36.204341 -12.87037625 31.31150585 -12.75292969 26.41870117 C-12.71472554 24.75536377 -12.67985787 23.09194617 -12.6484375 21.4284668 C-12.60260016 19.03274945 -12.54463783 16.63758016 -12.484375 14.2421875 C-12.47282379 13.50241165 -12.46127258 12.7626358 -12.44937134 12.0004425 C-12.33510105 7.97274779 -11.98675163 4.67810261 -10.0703125 1.09765625 C-6.89740537 -0.48879732 -3.48205866 -0.02312588 0 0 Z " fill="#86C662" transform="translate(91.0703125,137.90234375)"/>
<path d="M0 0 C3.3 0 6.6 0 10 0 C11.65 3.63 13.3 7.26 15 11 C15.309375 9.370625 15.61875 7.74125 15.9375 6.0625 C16.875 1.125 16.875 1.125 18 0 C21.33618231 -0.14257189 24.65975606 -0.04228157 28 0 C29.32 3.3 30.64 6.6 32 10 C33.32 6.7 34.64 3.4 36 0 C38.97 0 41.94 0 45 0 C46.46126775 2.9225355 45.41289021 4.45231776 44.41796875 7.5234375 C44.06283203 8.626875 43.70769531 9.7303125 43.34179688 10.8671875 C42.96087891 12.02476562 42.57996094 13.18234375 42.1875 14.375 C41.81818359 15.52484375 41.44886719 16.6746875 41.06835938 17.859375 C39.58616544 22.42570317 38.15154913 26.69690173 36 31 C33.03 31 30.06 31 27 31 C25.68 27.7 24.36 24.4 23 21 C21.68 24.3 20.36 27.6 19 31 C15.7 31 12.4 31 9 31 C7.71265593 27.06911162 6.43107158 23.13639726 5.15478516 19.2019043 C4.71984046 17.86382499 4.28332791 16.52625426 3.84521484 15.18920898 C3.21559861 13.26680931 2.59209157 11.34241216 1.96875 9.41796875 C1.59169922 8.26063232 1.21464844 7.1032959 0.82617188 5.91088867 C0 3 0 3 0 0 Z " fill="#50A278" transform="translate(429,182)"/>
<path d="M0 0 C3.63 0 7.26 0 11 0 C11.98111975 2.1032567 12.95983134 4.20763689 13.9375 6.3125 C14.48277344 7.48425781 15.02804688 8.65601563 15.58984375 9.86328125 C17 13 17 13 18 16 C20.31 10.72 22.62 5.44 25 0 C28.63 0 32.26 0 36 0 C36 10.23 36 20.46 36 31 C33.03 31 30.06 31 27 31 C26.505 28.525 26.505 28.525 26 26 C25.566875 27.2375 25.566875 27.2375 25.125 28.5 C23 31 23 31 20.57421875 31.33203125 C18.0338982 31.31406576 15.53101861 31.21368825 13 31 C12.34 29.68 11.68 28.36 11 27 C10.67 28.32 10.34 29.64 10 31 C8.52093108 31.02689216 7.04172517 31.04634621 5.5625 31.0625 C4.32693359 31.07990234 4.32693359 31.07990234 3.06640625 31.09765625 C1 31 1 31 0 30 C-0.08783542 27.78144736 -0.10694609 25.56011504 -0.09765625 23.33984375 C-0.0962413 22.67537735 -0.09482635 22.01091095 -0.09336853 21.3263092 C-0.08775518 19.19666101 -0.07520054 17.06711661 -0.0625 14.9375 C-0.05748671 13.49674631 -0.05292351 12.05599097 -0.04882812 10.61523438 C-0.03778145 7.07678898 -0.02050792 3.53840461 0 0 Z " fill="#50A179" transform="translate(188,182)"/>
<path d="M0 0 C3.92162415 4.3344267 4.62932279 7.87070252 4.390625 13.53125 C3.66228505 18.13435846 1.71145466 21.51287978 -1.84765625 24.60546875 C-6.21484127 27.4350242 -11.33428785 28.36159502 -16.4765625 27.6640625 C-22.03020377 26.08526816 -24.85828512 23.81075091 -28 19 C-29.76413158 13.41168641 -29.98648592 7.93643532 -27.3125 2.6875 C-24.44839769 -0.64105133 -21.93923769 -3.29971972 -17.75 -4.8125 C-10.83482899 -5.28398893 -5.42322061 -4.66649216 0 0 Z M-18 7 C-19.08916154 10.37350049 -19.08916154 10.37350049 -19 14 C-17.58333333 16.58333333 -17.58333333 16.58333333 -15 18 C-11.82764724 18.45319325 -9.93512264 18.52990283 -7.125 16.9375 C-5.33764697 13.85928089 -5.56613258 11.47093932 -6 8 C-8.11737132 5.56894404 -9.37726673 5.07594308 -12.5625 4.6875 C-15.25525964 4.84922487 -15.25525964 4.84922487 -18 7 Z " fill="#50A178" transform="translate(424,186)"/>
<path d="M0 0 C2.87602455 -0.10852923 5.74790832 -0.1875515 8.625 -0.25 C9.43324219 -0.28351563 10.24148438 -0.31703125 11.07421875 -0.3515625 C16.58168021 -0.44111472 19.62788209 0.33543094 24 4 C27.31481043 7.67316832 28.79185195 10.23074155 29.375 15.1875 C28.80854966 20.94641179 26.12231363 25.00631144 21.9375 28.9375 C17.43255085 31.40795598 12.7657289 31.12010113 7.75 31.0625 C7.00492187 31.05798828 6.25984375 31.05347656 5.4921875 31.04882812 C3.6614236 31.03709246 1.83070127 31.0191585 0 31 C-1.37262276 28.25475448 -1.1296881 26.03780705 -1.1328125 22.96875 C-1.13410156 21.76605469 -1.13539063 20.56335938 -1.13671875 19.32421875 C-1.13285156 18.06222656 -1.12898437 16.80023438 -1.125 15.5 C-1.12886719 14.23800781 -1.13273438 12.97601563 -1.13671875 11.67578125 C-1.13542969 10.47308594 -1.13414062 9.27039063 -1.1328125 8.03125 C-1.13168457 6.92330078 -1.13055664 5.81535156 -1.12939453 4.67382812 C-1 2 -1 2 0 0 Z M9 8 C9 12.62 9 17.24 9 22 C9.99 22.33 10.98 22.66 12 23 C14.76239351 21.58511552 16.80363095 20.19636905 19 18 C19.07216639 14.50278106 19.07216639 14.50278106 18 11 C14.73106489 8.26116247 13.3339145 8 9 8 Z " fill="#51A279" transform="translate(257,182)"/>
<path d="M0 0 C3.70950469 -0.2878064 7.29990597 -0.44849625 11 0 C13.5625 2.4375 13.5625 2.4375 15 5 C15.66 5.33 16.32 5.66 17 6 C17.309375 5.195625 17.61875 4.39125 17.9375 3.5625 C19 1 19 1 20 0 C21.85287502 -0.07226502 23.70833878 -0.0838122 25.5625 -0.0625 C26.57441406 -0.05347656 27.58632813 -0.04445312 28.62890625 -0.03515625 C29.80259766 -0.01775391 29.80259766 -0.01775391 31 0 C30.4520917 4.2829452 28.97567196 6.85135641 26.4375 10.3125 C25.79683594 11.19550781 25.15617187 12.07851562 24.49609375 12.98828125 C24.00238281 13.65214844 23.50867188 14.31601563 23 15 C23.49371094 15.73605469 23.98742187 16.47210938 24.49609375 17.23046875 C25.13675781 18.20628906 25.77742188 19.18210938 26.4375 20.1875 C27.07558594 21.15042969 27.71367187 22.11335938 28.37109375 23.10546875 C29.91546187 25.84977757 30.59816641 27.90418343 31 31 C21.11659193 31.92017937 21.11659193 31.92017937 18.37890625 29.6640625 C17.3125 28 17.3125 28 16 25 C15.401875 25.99 14.80375 26.98 14.1875 28 C12.2342045 30.41890664 11.34926753 30.94996448 8.21875 31.3984375 C5.45794168 31.37709104 2.7481182 31.25989209 0 31 C-0.33 30.34 -0.66 29.68 -1 29 C-0.32710938 28.11957031 0.34578125 27.23914063 1.0390625 26.33203125 C1.9020014 25.15955992 2.76392832 23.98634331 3.625 22.8125 C4.07101562 22.23435547 4.51703125 21.65621094 4.9765625 21.06054688 C6.42817148 19.13610137 6.42817148 19.13610137 8 16 C7.10319365 11.49618575 4.08399291 8.36165635 1.2421875 4.8671875 C0 3 0 3 0 0 Z " fill="#52A279" transform="translate(304,182)"/>
<path d="M0 0 C0.9583374 0.00523682 1.9166748 0.01047363 2.90405273 0.01586914 C4.45576172 0.02070313 4.45576172 0.02070313 6.03881836 0.02563477 C7.12743164 0.03401367 8.21604492 0.04239258 9.33764648 0.05102539 C10.97636719 0.05779297 10.97636719 0.05779297 12.64819336 0.06469727 C15.35723144 0.07652713 18.06616248 0.09300996 20.77514648 0.11352539 C21.90014648 5.86352539 21.90014648 5.86352539 20.77514648 8.11352539 C17.41091038 8.51144579 14.06524324 8.62265162 10.68139648 8.76977539 C9.72233398 8.88321289 8.76327148 8.99665039 7.77514648 9.11352539 C7.44514648 9.77352539 7.11514648 10.43352539 6.77514648 11.11352539 C7.55760742 11.10192383 8.34006836 11.09032227 9.14624023 11.07836914 C10.1581543 11.0693457 11.17006836 11.06032227 12.21264648 11.05102539 C13.22198242 11.03942383 14.23131836 11.02782227 15.27124023 11.01586914 C17.77514648 11.11352539 17.77514648 11.11352539 18.77514648 12.11352539 C18.90014648 15.61352539 18.90014648 15.61352539 18.77514648 19.11352539 C17.77514648 20.11352539 17.77514648 20.11352539 15.27124023 20.21118164 C14.2619043 20.19958008 13.25256836 20.18797852 12.21264648 20.17602539 C11.20073242 20.16700195 10.18881836 20.15797852 9.14624023 20.14868164 C7.97254883 20.1312793 7.97254883 20.1312793 6.77514648 20.11352539 C6.77514648 20.77352539 6.77514648 21.43352539 6.77514648 22.11352539 C7.77094727 22.0787207 7.77094727 22.0787207 8.78686523 22.04321289 C17.5572203 21.86396476 17.5572203 21.86396476 21.77514648 24.11352539 C21.44514648 26.42352539 21.11514648 28.73352539 20.77514648 31.11352539 C13.18514648 31.11352539 5.59514648 31.11352539 -2.22485352 31.11352539 C-3.62786484 28.30750274 -3.35460772 25.96334172 -3.35766602 22.82836914 C-3.35895508 21.57604492 -3.36024414 20.3237207 -3.36157227 19.03344727 C-3.35770508 17.71924805 -3.35383789 16.40504883 -3.34985352 15.05102539 C-3.3537207 13.73295898 -3.35758789 12.41489258 -3.36157227 11.05688477 C-3.3602832 9.80584961 -3.35899414 8.55481445 -3.35766602 7.26586914 C-3.35653809 6.11078857 -3.35541016 4.95570801 -3.35424805 3.765625 C-3.17843803 0.162183 -3.17843803 0.162183 0 0 Z " fill="#51A379" transform="translate(231.224853515625,181.886474609375)"/>
<path d="M0 0 C1.65 0.33 3.3 0.66 5 1 C5 3.97 5 6.94 5 10 C5.66 10 6.32 10 7 10 C7.061875 11.423125 7.061875 11.423125 7.125 12.875 C7.74663285 17.49015295 10.13685707 20.91378835 12.625 24.765625 C14 27 14 27 15 30 C15.66 30 16.32 30 17 30 C17.66 30.99 18.32 31.98 19 33 C21.05003955 34.19232613 21.05003955 34.19232613 23 35 C23 35.99 23 36.98 23 38 C25.97 37.34 28.94 36.68 32 36 C26.86931082 41.13068918 21.74982077 41.27091511 14.79882812 41.32226562 C13.81333984 41.31904297 12.82785156 41.31582031 11.8125 41.3125 C10.81541016 41.32861328 9.81832031 41.34472656 8.79101562 41.36132812 C7.83517578 41.36197266 6.87933594 41.36261719 5.89453125 41.36328125 C5.02675049 41.36626221 4.15896973 41.36924316 3.26489258 41.37231445 C0.50800077 40.91912269 -0.33442665 40.2066339 -2 38 C-3.69066316 32.92801052 -3.2253202 27.53916192 -3.24023438 22.23095703 C-3.24993395 20.13924294 -3.28096762 18.04851463 -3.3125 15.95703125 C-3.3190314 14.61979747 -3.32428133 13.2825567 -3.328125 11.9453125 C-3.3374707 10.73375488 -3.34681641 9.52219727 -3.35644531 8.27392578 C-2.97227896 4.74538412 -2.04711844 2.85853403 0 0 Z " fill="#7EC165" transform="translate(41,178)"/>
<path d="M0 0 C7.92 0 15.84 0 24 0 C24 2.31 24 4.62 24 7 C23 8 23 8 20.05859375 8.09765625 C18.26615234 8.08025391 18.26615234 8.08025391 16.4375 8.0625 C14.64119141 8.04896484 14.64119141 8.04896484 12.80859375 8.03515625 C11.88175781 8.02355469 10.95492188 8.01195312 10 8 C10 8.99 10 9.98 10 11 C10.71027344 10.98839844 11.42054688 10.97679687 12.15234375 10.96484375 C13.07144531 10.95582031 13.99054688 10.94679687 14.9375 10.9375 C15.85402344 10.92589844 16.77054687 10.91429687 17.71484375 10.90234375 C20 11 20 11 21 12 C21.125 15.5 21.125 15.5 21 19 C20 20 20 20 17.71484375 20.09765625 C16.34005859 20.08025391 16.34005859 20.08025391 14.9375 20.0625 C14.01839844 20.05347656 13.09929687 20.04445312 12.15234375 20.03515625 C11.44207031 20.02355469 10.73179687 20.01195312 10 20 C10.01160156 20.71027344 10.02320313 21.42054688 10.03515625 22.15234375 C10.04869141 23.53099609 10.04869141 23.53099609 10.0625 24.9375 C10.07410156 25.85402344 10.08570313 26.77054688 10.09765625 27.71484375 C10 30 10 30 9 31 C6.03 31 3.06 31 0 31 C0 20.77 0 10.54 0 0 Z " fill="#4EA278" transform="translate(340,182)"/>
<path d="M0 0 C2.97 0 5.94 0 9 0 C9.33 7.59 9.66 15.18 10 23 C12.97 22.67 15.94 22.34 19 22 C20.32 22.33 21.64 22.66 23 23 C23.04241723 25.33294775 23.04092937 27.66702567 23 30 C22 31 22 31 19.86694336 31.11352539 C18.95050049 31.10828857 18.03405762 31.10305176 17.08984375 31.09765625 C16.199021 31.09515869 15.30819824 31.09266113 14.39038086 31.09008789 C13.25093018 31.08098389 12.11147949 31.07187988 10.9375 31.0625 C7.328125 31.041875 3.71875 31.02125 0 31 C0 20.77 0 10.54 0 0 Z " fill="#4EA477" transform="translate(368,182)"/>
<path d="M0 0 C1.47906892 -0.02689216 2.95827483 -0.04634621 4.4375 -0.0625 C5.26121094 -0.07410156 6.08492188 -0.08570313 6.93359375 -0.09765625 C9 0 9 0 10 1 C10.10003289 3.13353174 10.13081048 5.27037542 10.1328125 7.40625 C10.13410156 8.70691406 10.13539063 10.00757813 10.13671875 11.34765625 C10.13357666 12.36883545 10.13357666 12.36883545 10.13037109 13.41064453 C10.1250224 15.49128515 10.1303168 17.57170989 10.13671875 19.65234375 C10.13542969 20.95300781 10.13414062 22.25367188 10.1328125 23.59375 C10.13168457 24.79708984 10.13055664 26.00042969 10.12939453 27.24023438 C10 30 10 30 9 31 C7.48071962 31.07179964 5.95832518 31.08392007 4.4375 31.0625 C3.61121094 31.05347656 2.78492188 31.04445312 1.93359375 31.03515625 C0.97646484 31.01775391 0.97646484 31.01775391 0 31 C-2.24054508 20.12473887 -1.71003107 10.86527434 0 0 Z " fill="#4FA579" transform="translate(290,182)"/>
<path d="M0 0 C0.33 0 0.66 0 1 0 C1.33 4.29 1.66 8.58 2 13 C3.03406982 13.01981934 4.06813965 13.03963867 5.13354492 13.06005859 C8.98225619 13.13632227 12.8305996 13.22500714 16.67895508 13.31738281 C18.34229248 13.35558696 20.00571008 13.39045463 21.66918945 13.421875 C24.0649068 13.46771234 26.46007609 13.52567467 28.85546875 13.5859375 C29.96513252 13.60326431 29.96513252 13.60326431 31.09721375 13.62094116 C35.12490846 13.73521145 38.41955364 14.08356087 42 16 C43.5446663 19.08933259 43.1837995 22.35449125 43.203125 25.74609375 C43.20882507 26.51301041 43.21452515 27.27992706 43.22039795 28.07008362 C43.2298486 29.69327412 43.23638219 31.31648382 43.24023438 32.93969727 C43.24994851 35.42433029 43.28097346 37.90813903 43.3125 40.39257812 C43.31902927 41.96874508 43.32428004 43.54491796 43.328125 45.12109375 C43.3404718 45.86491806 43.3528186 46.60874237 43.36553955 47.37510681 C43.35347454 50.16530319 43.27409181 52.45692077 42.00366211 54.97412109 C38.69335868 56.6690029 35.24274963 56.36376103 31.61328125 56.29296875 C30.79627243 56.28872391 29.97926361 56.28447906 29.13749695 56.28010559 C26.52882893 56.26331691 23.92093438 56.22566519 21.3125 56.1875 C19.54363095 56.17245337 17.77474979 56.15876492 16.00585938 56.14648438 C11.67027504 56.11341286 7.33526864 56.0616299 3 56 C2.67 55.34 2.34 54.68 2 54 C13.22 53.67 24.44 53.34 36 53 C35.505 47.06 35.505 47.06 35 41 C37.45823172 44.68734758 38.01242616 47.69699971 39 52 C39.66 52 40.32 52 41 52 C40.94670532 51.04130005 40.94670532 51.04130005 40.89233398 50.06323242 C40.73256823 47.10503221 40.58498664 44.14633686 40.4375 41.1875 C40.35338867 39.68026367 40.35338867 39.68026367 40.26757812 38.14257812 C39.93899866 31.33003056 40.19823415 24.77278956 41 18 C39.24357178 17.970271 39.24357178 17.970271 37.45166016 17.93994141 C33.11663926 17.86399919 28.78195905 17.7752648 24.44726562 17.68261719 C22.56940424 17.64428023 20.69146824 17.60943573 18.81347656 17.578125 C16.11756679 17.53257637 13.42217288 17.47456625 10.7265625 17.4140625 C9.88380768 17.40251129 9.04105286 17.39096008 8.17276001 17.37905884 C2.22774341 17.22774341 2.22774341 17.22774341 0 15 C-0.14497985 12.41935871 -0.18677545 9.95056116 -0.125 7.375 C-0.11597656 6.66859375 -0.10695313 5.9621875 -0.09765625 5.234375 C-0.07407603 3.48943902 -0.03820461 1.74467705 0 0 Z " fill="#64B68F" transform="translate(120,163)"/>
<path d="M0 0 C0 0.66 0 1.32 0 2 C-1.40254152 2.92362491 -2.80676917 3.84477709 -4.21875 4.75390625 C-14.38921204 11.86876895 -18.01074715 21.65373846 -20.6171875 33.41015625 C-20.74351563 34.26480469 -20.86984375 35.11945313 -21 36 C-19.18884044 37.81115956 -16.38721773 37.38199448 -13.9375 37.5625 C-12.83277344 37.64628906 -11.72804688 37.73007812 -10.58984375 37.81640625 C-9.73519531 37.87699219 -8.88054687 37.93757813 -8 38 C-8 38.33 -8 38.66 -8 39 C-11.29159316 39.05790353 -14.58305603 39.09356261 -17.875 39.125 C-18.81214844 39.14175781 -19.74929687 39.15851563 -20.71484375 39.17578125 C-21.61074219 39.18222656 -22.50664063 39.18867188 -23.4296875 39.1953125 C-24.25710449 39.20578613 -25.08452148 39.21625977 -25.93701172 39.22705078 C-28 39 -28 39 -30 37 C-29.01 37 -28.02 37 -27 37 C-26.896875 35.72125 -26.79375 34.4425 -26.6875 33.125 C-26.11866692 27.86329406 -24.6625387 23.00852854 -23 18 C-22.34 18 -21.68 18 -21 18 C-20.34 16.02 -19.68 14.04 -19 12 C-18.34 12 -17.68 12 -17 12 C-16.62875 11.071875 -16.62875 11.071875 -16.25 10.125 C-14.79371361 7.64931313 -13.62187494 7.04874998 -11 6 C-11 5.34 -11 4.68 -11 4 C-9.73308493 3.32591692 -8.46129251 2.66099503 -7.1875 2 C-6.47980469 1.62875 -5.77210937 1.2575 -5.04296875 0.875 C-3 0 -3 0 0 0 Z " fill="#4EA575" transform="translate(112,220)"/>
<path d="M0 0 C0.9583374 0.00523682 1.9166748 0.01047363 2.90405273 0.01586914 C4.45576172 0.02070313 4.45576172 0.02070313 6.03881836 0.02563477 C7.12743164 0.03401367 8.21604492 0.04239258 9.33764648 0.05102539 C10.97636719 0.05779297 10.97636719 0.05779297 12.64819336 0.06469727 C15.35723144 0.07652713 18.06616248 0.09300996 20.77514648 0.11352539 C21.90014648 5.86352539 21.90014648 5.86352539 20.77514648 8.11352539 C15.16514648 8.11352539 9.55514648 8.11352539 3.77514648 8.11352539 C3.44514648 9.10352539 3.11514648 10.09352539 2.77514648 11.11352539 C1.78514648 10.78352539 0.79514648 10.45352539 -0.22485352 10.11352539 C-0.22485352 11.10352539 -0.22485352 12.09352539 -0.22485352 13.11352539 C-0.88485352 13.11352539 -1.54485352 13.11352539 -2.22485352 13.11352539 C-2.55485352 13.77352539 -2.88485352 14.43352539 -3.22485352 15.11352539 C-3.25170763 12.80108747 -3.27118193 10.48856269 -3.28735352 8.17602539 C-3.29895508 6.88825195 -3.31055664 5.60047852 -3.32250977 4.27368164 C-3.19548168 0.16305267 -3.19548168 0.16305267 0 0 Z " fill="#57A37D" transform="translate(231.224853515625,181.886474609375)"/>
<path d="M0 0 C0.33 2.64 0.66 5.28 1 8 C1.66 7.67 2.32 7.34 3 7 C3.99 7.33 4.98 7.66 6 8 C6.33 7.67 6.66 7.34 7 7 C5.68 6.34 4.36 5.68 3 5 C12.41002278 4.6309795 12.41002278 4.6309795 17 7 C16.67 9.31 16.34 11.62 16 14 C8.41 14 0.82 14 -7 14 C-8.42662219 11.14675563 -8.31033868 9.16545451 -8 6 C-4 0 -4 0 0 0 Z " fill="#49A876" transform="translate(236,199)"/>
<path d="M0 0 C2.93804996 -0.08086376 5.87388075 -0.1404283 8.8125 -0.1875 C9.64587891 -0.21263672 10.47925781 -0.23777344 11.33789062 -0.26367188 C12.54155273 -0.27817383 12.54155273 -0.27817383 13.76953125 -0.29296875 C14.87711792 -0.31653442 14.87711792 -0.31653442 16.00708008 -0.34057617 C18 0 18 0 21 3 C14.73 2.67 8.46 2.34 2 2 C2 11.24 2 20.48 2 30 C7.94 29.67 13.88 29.34 20 29 C15.62703266 31.18648367 12.4791784 31.23362071 7.75 31.125 C7.00492187 31.11597656 6.25984375 31.10695312 5.4921875 31.09765625 C3.66131941 31.07418358 1.83061762 31.03831525 0 31 C-1.37262276 28.25475448 -1.1296881 26.03780705 -1.1328125 22.96875 C-1.13410156 21.76605469 -1.13539063 20.56335938 -1.13671875 19.32421875 C-1.13285156 18.06222656 -1.12898437 16.80023438 -1.125 15.5 C-1.12886719 14.23800781 -1.13273438 12.97601563 -1.13671875 11.67578125 C-1.13542969 10.47308594 -1.13414062 9.27039063 -1.1328125 8.03125 C-1.13168457 6.92330078 -1.13055664 5.81535156 -1.12939453 4.67382812 C-1 2 -1 2 0 0 Z " fill="#4FB18B" transform="translate(257,182)"/>
<path d="M0 0 C2.97 0 5.94 0 9 0 C9 6.93 9 13.86 9 21 C8.67 21 8.34 21 8 21 C7.67 14.73 7.34 8.46 7 2 C5.02 2 3.04 2 1 2 C1 10.91 1 19.82 1 29 C6.61 29 12.22 29 18 29 C18 27.02 18 25.04 18 23 C19.65 23 21.3 23 23 23 C23.04241723 25.33294775 23.04092937 27.66702567 23 30 C22 31 22 31 19.86694336 31.11352539 C18.95050049 31.10828857 18.03405762 31.10305176 17.08984375 31.09765625 C16.199021 31.09515869 15.30819824 31.09266113 14.39038086 31.09008789 C13.25093018 31.08098389 12.11147949 31.07187988 10.9375 31.0625 C7.328125 31.041875 3.71875 31.02125 0 31 C0 20.77 0 10.54 0 0 Z " fill="#5F9C7D" transform="translate(368,182)"/>
<path d="M0 0 C7.92 0 15.84 0 24 0 C24 2.31 24 4.62 24 7 C23 8 23 8 20.05859375 8.09765625 C18.26615234 8.08025391 18.26615234 8.08025391 16.4375 8.0625 C14.64119141 8.04896484 14.64119141 8.04896484 12.80859375 8.03515625 C11.88175781 8.02355469 10.95492188 8.01195312 10 8 C10 8.99 10 9.98 10 11 C11.32 11.33 12.64 11.66 14 12 C11.69 12.33 9.38 12.66 7 13 C7 10.69 7 8.38 7 6 C10.26524093 5.08165099 12.87196791 5.02290158 16.1875 5.5 C19.7963131 6.33506117 19.7963131 6.33506117 22 5 C22.33 4.01 22.66 3.02 23 2 C16.4 2.33 9.8 2.66 3 3 C1.46733418 6.06533164 1.89723529 9.26754272 1.9375 12.625 C1.94201172 13.33140625 1.94652344 14.0378125 1.95117188 14.765625 C1.96296125 16.51045275 1.98089676 18.255237 2 20 C1.34 20.33 0.68 20.66 0 21 C0 14.07 0 7.14 0 0 Z " fill="#5EA280" transform="translate(340,182)"/>
<path d="M0 0 C0.66 0 1.32 0 2 0 C2.07425143 4.76884567 2.12864936 9.5373536 2.16479492 14.30664062 C2.17986565 15.92844506 2.20032593 17.55020884 2.22631836 19.171875 C2.26277829 21.50531046 2.27974314 23.83820631 2.29296875 26.171875 C2.30845261 26.89493835 2.32393646 27.61800171 2.33988953 28.36297607 C2.34092922 31.48492487 2.1839468 33.66456959 0.66918945 36.42675781 C-1.89586412 38.84436864 -3.96244854 38.99795174 -7.4375 39.1875 C-11 39 -11 39 -15 37 C-11.04 37 -7.08 37 -3 37 C-3 36.34 -3 35.68 -3 35 C-2.01 34.505 -2.01 34.505 -1 34 C-1.00523682 33.07662842 -1.01047363 32.15325684 -1.01586914 31.2019043 C-1.03291585 27.77465186 -1.0454525 24.3474445 -1.05493164 20.92016602 C-1.05995903 19.43708587 -1.06678185 17.95401067 -1.07543945 16.47094727 C-1.08757482 14.33869199 -1.09324425 12.20650227 -1.09765625 10.07421875 C-1.10289307 8.79119873 -1.10812988 7.50817871 -1.11352539 6.1862793 C-1 3 -1 3 0 0 Z " fill="#57B28A" transform="translate(121,220)"/>
<path d="M0 0 C2.64 0 5.28 0 8 0 C8 0.66 8 1.32 8 2 C6.35 2 4.7 2 3 2 C3.33 10.91 3.66 19.82 4 29 C5.65 29.33 7.3 29.66 9 30 C9.33 29.34 9.66 28.68 10 28 C10 28.99 10 29.98 10 31 C8.52093108 31.02689216 7.04172517 31.04634621 5.5625 31.0625 C4.32693359 31.07990234 4.32693359 31.07990234 3.06640625 31.09765625 C1 31 1 31 0 30 C-0.08783542 27.78144736 -0.10694609 25.56011504 -0.09765625 23.33984375 C-0.0962413 22.67537735 -0.09482635 22.01091095 -0.09336853 21.3263092 C-0.08775518 19.19666101 -0.07520054 17.06711661 -0.0625 14.9375 C-0.05748671 13.49674631 -0.05292351 12.05599097 -0.04882812 10.61523438 C-0.03778145 7.07678898 -0.02050792 3.53840461 0 0 Z " fill="#57A27E" transform="translate(188,182)"/>
<path d="M0 0 C1.67542976 0.28604898 3.34385343 0.61781233 5 1 C4.47731534 3.76276177 3.89130413 6.3260876 3 9 C2.85507877 10.40664926 2.75371069 11.8181133 2.68359375 13.23046875 C2.64169922 14.03291016 2.59980469 14.83535156 2.55664062 15.66210938 C2.51732422 16.49548828 2.47800781 17.32886719 2.4375 18.1875 C2.39431641 19.03248047 2.35113281 19.87746094 2.30664062 20.74804688 C2.20068482 22.83184433 2.0998498 24.91590103 2 27 C1.34 27 0.68 27 0 27 C-0.33 28.32 -0.66 29.64 -1 31 C-1.02465622 26.74585377 -1.04283899 22.49174502 -1.05493164 18.23754883 C-1.05997101 16.78929927 -1.06680253 15.34105483 -1.07543945 13.89282227 C-1.08752247 11.81525412 -1.09323211 9.73775303 -1.09765625 7.66015625 C-1.10289307 6.40855713 -1.10812988 5.15695801 -1.11352539 3.86743164 C-1 1 -1 1 0 0 Z " fill="#B4D449" transform="translate(39,182)"/>
<path d="M0 0 C3 1 3 1 4 3 C4.08658569 5.55362604 4.11562516 8.0795442 4.09765625 10.6328125 C4.0962413 11.38464813 4.09482635 12.13648376 4.09336853 12.91110229 C4.08776465 15.3157751 4.07521157 17.72035527 4.0625 20.125 C4.0574855 21.75390491 4.0529225 23.38281127 4.04882812 25.01171875 C4.03779397 29.00784827 4.02052679 33.00390842 4 37 C3.01 37.495 3.01 37.495 2 38 C1.34 25.46 0.68 12.92 0 0 Z " fill="#77B680" transform="translate(119,139)"/>
<path d="M0 0 C0.66 0.33 1.32 0.66 2 1 C0.71700242 3.86207152 -0.530636 6.0245088 -3 8 C-3.99 8 -4.98 8 -6 8 C-7.07370894 10.00425669 -7.94835945 11.6798286 -8.3125 13.9375 C-9 16 -9 16 -11.3125 18.25 C-14.14790626 21.15134594 -15.44492548 23.64911661 -17.0078125 27.328125 C-18 29 -18 29 -21 30 C-19.49809602 19.65355033 -10.58468583 9.85538912 -3 3 C-2.01 3 -1.02 3 0 3 C0 2.01 0 1.02 0 0 Z " fill="#6DAF7D" transform="translate(102,192)"/>
<path d="M0 0 C0.9583374 0.00523682 1.9166748 0.01047363 2.90405273 0.01586914 C4.45576172 0.02070313 4.45576172 0.02070313 6.03881836 0.02563477 C7.12743164 0.03401367 8.21604492 0.04239258 9.33764648 0.05102539 C10.97636719 0.05779297 10.97636719 0.05779297 12.64819336 0.06469727 C15.35723144 0.07652713 18.06616248 0.09300996 20.77514648 0.11352539 C21.10514648 2.09352539 21.43514648 4.07352539 21.77514648 6.11352539 C19.46514648 6.44352539 17.15514648 6.77352539 14.77514648 7.11352539 C16.09514648 6.78352539 17.41514648 6.45352539 18.77514648 6.11352539 C18.44514648 5.12352539 18.11514648 4.13352539 17.77514648 3.11352539 C16.07745117 3.13092773 16.07745117 3.13092773 14.34545898 3.14868164 C12.8636898 3.15805993 11.38191883 3.16716009 9.90014648 3.17602539 C9.1537793 3.1844043 8.40741211 3.1927832 7.63842773 3.20141602 C2.00170898 3.22680664 2.00170898 3.22680664 -0.22485352 2.11352539 C-0.88485352 6.40352539 -1.54485352 10.69352539 -2.22485352 15.11352539 C-2.55485352 15.11352539 -2.88485352 15.11352539 -3.22485352 15.11352539 C-3.25170763 12.80108747 -3.27118193 10.48856269 -3.28735352 8.17602539 C-3.29895508 6.88825195 -3.31055664 5.60047852 -3.32250977 4.27368164 C-3.19548168 0.16305267 -3.19548168 0.16305267 0 0 Z " fill="#58A889" transform="translate(231.224853515625,181.886474609375)"/>
<path d="M0 0 C0.79481277 0.00424484 1.58962555 0.00848969 2.40852356 0.01286316 C4.94587146 0.02964945 7.48242363 0.06730051 10.01953125 0.10546875 C11.7402229 0.1205157 13.46092701 0.13420409 15.18164062 0.14648438 C19.39874387 0.17955268 23.61525267 0.2313338 27.83203125 0.29296875 C27.83203125 0.95296875 27.83203125 1.61296875 27.83203125 2.29296875 C15.95203125 2.29296875 4.07203125 2.29296875 -8.16796875 2.29296875 C-9.31091189 5.72179816 -9.37761347 8.53379713 -9.484375 12.1484375 C-9.5051561 12.81007401 -9.52593719 13.47171051 -9.54734802 14.15339661 C-9.61261602 16.26231727 -9.67162219 18.3713601 -9.73046875 20.48046875 C-9.77367564 21.9121219 -9.81729063 23.34376279 -9.86132812 24.77539062 C-9.96827381 28.28112029 -10.06960516 31.78698661 -10.16796875 35.29296875 C-10.49796875 35.29296875 -10.82796875 35.29296875 -11.16796875 35.29296875 C-11.24213898 30.79064541 -11.29657925 26.28867784 -11.33276367 21.78588867 C-11.34784811 20.25425014 -11.36831853 18.72265477 -11.39428711 17.19116211 C-11.43068722 14.98931221 -11.44769788 12.78803342 -11.4609375 10.5859375 C-11.47642136 9.90146042 -11.49190521 9.21698334 -11.50785828 8.51176453 C-11.50880168 5.8453462 -11.4023277 3.7435193 -10.16015625 1.35546875 C-6.92472018 -0.37009716 -3.57287038 -0.07166296 0 0 Z " fill="#96BE74" transform="translate(91.16796875,137.70703125)"/>
<path d="M0 0 C0.33 0 0.66 0 1 0 C1.33 4.29 1.66 8.58 2 13 C13.55 13.33 25.1 13.66 37 14 C37 14.33 37 14.66 37 15 C32.38 15.33 27.76 15.66 23 16 C23 16.33 23 16.66 23 17 C19.54173658 17.05789006 16.08359707 17.09355821 12.625 17.125 C11.64015625 17.14175781 10.6553125 17.15851563 9.640625 17.17578125 C8.69960937 17.18222656 7.75859375 17.18867188 6.7890625 17.1953125 C5.48509521 17.21102295 5.48509521 17.21102295 4.15478516 17.22705078 C2 17 2 17 0 15 C-0.14497985 12.41935871 -0.18677545 9.95056116 -0.125 7.375 C-0.11597656 6.66859375 -0.10695313 5.9621875 -0.09765625 5.234375 C-0.07407603 3.48943902 -0.03820461 1.74467705 0 0 Z " fill="#43D5AD" transform="translate(120,163)"/>
<path d="M0 0 C9.88340807 -0.92017937 9.88340807 -0.92017937 12.62109375 1.3359375 C13.6875 3 13.6875 3 15 6 C12.33333333 5.33333333 9.66666667 4.66666667 7 4 C7 5.65 7 7.3 7 9 C6.01 9 5.02 9 4 9 C0 3.85714286 0 3.85714286 0 0 Z " fill="#5AA381" transform="translate(304,182)"/>
<path d="M0 0 C9.9 0 19.8 0 30 0 C30 0.99 30 1.98 30 3 C23.11300343 3.11739199 16.25192214 2.99173804 9.375 2.625 C8.67632812 2.59414307 7.97765625 2.56328613 7.2578125 2.53149414 C2.23420643 2.23420643 2.23420643 2.23420643 0 0 Z " fill="#769872" transform="translate(45,177)"/>
<path d="M0 0 C0.56372314 0.48750732 1.12744629 0.97501465 1.70825195 1.47729492 C4.31935859 3.21219128 5.57455151 3.37478557 8.66796875 3.36328125 C9.56193359 3.36263672 10.45589844 3.36199219 11.37695312 3.36132812 C12.30443359 3.34521484 13.23191406 3.32910156 14.1875 3.3125 C15.5497168 3.31733398 15.5497168 3.31733398 16.93945312 3.32226562 C22.90377581 3.27530245 28.22314715 2.48109302 34 1 C29.86233941 5.39161542 25.60234654 6.09174212 19.70703125 6.30078125 C17.74223723 6.31529618 15.77733713 6.31892524 13.8125 6.3125 C12.81541016 6.32861328 11.81832031 6.34472656 10.79101562 6.36132812 C9.83517578 6.36197266 8.87933594 6.36261719 7.89453125 6.36328125 C7.02675049 6.36626221 6.15896973 6.36924316 5.26489258 6.37231445 C3 6 3 6 1.1940918 4.66479492 C0 3 0 3 0 0 Z " fill="#88B887" transform="translate(39,213)"/>
<path d="M0 0 C2.39073149 2.93189994 3.84107307 5.72143288 5.1875 9.25 C5.53167969 10.14203125 5.87585938 11.0340625 6.23046875 11.953125 C6.48441406 12.62859375 6.73835937 13.3040625 7 14 C7.66 12.68 8.32 11.36 9 10 C9.99 10 10.98 10 12 10 C12 11.32 12 12.64 12 14 C11.34 14 10.68 14 10 14 C10 15.65 10 17.3 10 19 C8.68 19.33 7.36 19.66 6 20 C5.731875 19.113125 5.46375 18.22625 5.1875 17.3125 C4.17137959 14.04809434 4.17137959 14.04809434 2.4375 11.6875 C0.41909616 7.91396239 0.26679269 4.22268427 0 0 Z " fill="#5AA382" transform="translate(199,184)"/>
<path d="M0 0 C1.39456452 0.00667256 2.78911118 0.01863093 4.18359375 0.03515625 C4.89451172 0.03966797 5.60542969 0.04417969 6.33789062 0.04882812 C8.09899388 0.06064761 9.86005411 0.07858362 11.62109375 0.09765625 C11.95109375 1.41765625 12.28109375 2.73765625 12.62109375 4.09765625 C4.70109375 4.59265625 4.70109375 4.59265625 -3.37890625 5.09765625 C-3.70890625 3.77765625 -4.03890625 2.45765625 -4.37890625 1.09765625 C-3.37890625 0.09765625 -3.37890625 0.09765625 0 0 Z " fill="#4CA277" transform="translate(237.37890625,183.90234375)"/>
<path d="M0 0 C1.02787125 0.00212242 1.02787125 0.00212242 2.07650757 0.00428772 C4.26719511 0.0098895 6.4577808 0.02244219 8.6484375 0.03515625 C10.13281102 0.04017103 11.61718615 0.04473397 13.1015625 0.04882812 C16.74222065 0.05985948 20.38281914 0.07712526 24.0234375 0.09765625 C24.0234375 0.42765625 24.0234375 0.75765625 24.0234375 1.09765625 C23.21189209 1.14253174 22.40034668 1.18740723 21.56420898 1.23364258 C17.86221994 1.44587198 14.16171735 1.6778285 10.4609375 1.91015625 C9.18412109 1.98041016 7.90730469 2.05066406 6.59179688 2.12304688 C0.12260486 2.54312428 -5.24947069 2.95421488 -10.9765625 6.09765625 C-8.65393372 -0.37252392 -6.6795005 -0.02715244 0 0 Z " fill="#97C866" transform="translate(91.9765625,138.90234375)"/>
<path d="M0 0 C0.33 1.32 0.66 2.64 1 4 C8.26 3.67 15.52 3.34 23 3 C22.67 3.99 22.34 4.98 22 6 C14.41 6 6.82 6 -1 6 C-1 1 -1 1 0 0 Z " fill="#5E9F80" transform="translate(230,207)"/>
<path d="M0 0 C0.33 0 0.66 0 1 0 C1.08720919 3.58317958 1.14046112 7.16608567 1.1875 10.75 C1.21263672 11.76578125 1.23777344 12.7815625 1.26367188 13.828125 C1.27333984 14.8078125 1.28300781 15.7875 1.29296875 16.796875 C1.3086792 17.69760742 1.32438965 18.59833984 1.34057617 19.52636719 C0.92922921 22.51401407 0.0761241 23.83915473 -2 26 C-5.53970718 27.17990239 -8.28183899 27.19569268 -12 27 C-13.32 26.34 -14.64 25.68 -16 25 C-12.04 25 -8.08 25 -4 25 C-4 24.34 -4 23.68 -4 23 C-3.01 23 -2.02 23 -1 23 C-0.67 15.41 -0.34 7.82 0 0 Z " fill="#5F9E8B" transform="translate(122,232)"/>
<path d="M0 0 C1.23800991 3.71402974 0.6155489 6.16991798 0 10 C0 10.99 0 11.98 0 13 C-0.66 13 -1.32 13 -2 13 C-2.33 13.66 -2.66 14.32 -3 15 C-2.67 12.36 -2.34 9.72 -2 7 C-4.475 6.01 -4.475 6.01 -7 5 C-7 4.01 -7 3.02 -7 2 C-4.69 1.34 -2.38 0.68 0 0 Z " fill="#49A96F" transform="translate(421,184)"/>
<path d="M0 0 C0.66 0 1.32 0 2 0 C2.75 1.5625 2.75 1.5625 3 4 C2.05133758 5.73376235 1.09198398 7.46422103 0.0390625 9.13671875 C-1.214907 11.20078368 -1.214907 11.20078368 -1.9375 14.625 C-3.1787167 18.56768833 -4.91496638 20.32089186 -8 23 C-7.731875 22.360625 -7.46375 21.72125 -7.1875 21.0625 C-5.64600839 17.08707428 -4.33043852 13.05001139 -3 9 C-2.43826606 7.31224484 -1.87579706 5.62473411 -1.3125 3.9375 C-1.06113281 3.18339844 -0.80976562 2.42929688 -0.55078125 1.65234375 C-0.36902344 1.10707031 -0.18726562 0.56179687 0 0 Z " fill="#6EB768" transform="translate(117,140)"/>
<path d="M0 0 C1.98 0 3.96 0 6 0 C5.01 1.98 4.02 3.96 3 6 C-0.3 6 -3.6 6 -7 6 C-7.66 4.35 -8.32 2.7 -9 1 C-4.25 1.75 -4.25 1.75 -2 4 C-1.34 2.68 -0.68 1.36 0 0 Z " fill="#5A9E7B" transform="translate(208,207)"/>
<path d="M0 0 C1.47906892 -0.02689216 2.95827483 -0.04634621 4.4375 -0.0625 C5.26121094 -0.07410156 6.08492188 -0.08570313 6.93359375 -0.09765625 C9 0 9 0 10 1 C10.1875 4.4375 10.1875 4.4375 10 8 C9.34 8.66 8.68 9.32 8 10 C7.67 7.36 7.34 4.72 7 2 C5.35 2 3.7 2 2 2 C2 4.31 2 6.62 2 9 C0 7 0 7 -0.125 3.375 C-0.08375 2.26125 -0.0425 1.1475 0 0 Z " fill="#60A182" transform="translate(290,182)"/>
<path d="M0 0 C9.24 0 18.48 0 28 0 C28 0.33 28 0.66 28 1 C25.36 1.33 22.72 1.66 20 2 C20 2.33 20 2.66 20 3 C17.04081802 2.88641524 14.08323217 2.75966914 11.125 2.625 C10.28324219 2.5940625 9.44148438 2.563125 8.57421875 2.53125 C7.76855469 2.49257813 6.96289062 2.45390625 6.1328125 2.4140625 C5.38918457 2.3826416 4.64555664 2.3512207 3.87939453 2.31884766 C2 2 2 2 0 0 Z " fill="#4FAE8E" transform="translate(90,256)"/>
<path d="M0 0 C1.65 0 3.3 0 5 0 C4.125 5.875 4.125 5.875 3 7 C1.5112814 7.08669432 0.018555 7.10703494 -1.47265625 7.09765625 C-2.37177734 7.09443359 -3.27089844 7.09121094 -4.19726562 7.08789062 C-5.14279297 7.07951172 -6.08832031 7.07113281 -7.0625 7.0625 C-8.01189453 7.05798828 -8.96128906 7.05347656 -9.93945312 7.04882812 C-12.29303065 7.0370011 -14.64648477 7.02052025 -17 7 C-17 6.67 -17 6.34 -17 6 C-11.39 6 -5.78 6 0 6 C0 4.02 0 2.04 0 0 Z " fill="#58A281" transform="translate(386,205)"/>
<path d="M0 0 C1.65 0.33 3.3 0.66 5 1 C3.68 1.33 2.36 1.66 1 2 C1.01160156 2.71027344 1.02320313 3.42054688 1.03515625 4.15234375 C1.04869141 5.53099609 1.04869141 5.53099609 1.0625 6.9375 C1.07410156 7.85402344 1.08570313 8.77054688 1.09765625 9.71484375 C1 12 1 12 0 13 C-1.51928038 13.07179964 -3.04167482 13.08392007 -4.5625 13.0625 C-5.38878906 13.05347656 -6.21507812 13.04445312 -7.06640625 13.03515625 C-7.70449219 13.02355469 -8.34257812 13.01195312 -9 13 C-9 12.34 -9 11.68 -9 11 C-6.36 11 -3.72 11 -1 11 C-0.67 7.37 -0.34 3.74 0 0 Z " fill="#639B80" transform="translate(349,200)"/>
<path d="M0 0 C1.32 0.33 2.64 0.66 4 1 C4.625 3.8125 4.625 3.8125 5 7 C4.01 8.485 4.01 8.485 3 10 C2.34 10 1.68 10 1 10 C0.34 11.98 -0.32 13.96 -1 16 C-1.99 16 -2.98 16 -4 16 C-3.38125 14.948125 -2.7625 13.89625 -2.125 12.8125 C0.31670983 8.5717975 0.31670983 8.5717975 2 4 C1.23396041 1.7142289 1.23396041 1.7142289 0 0 Z " fill="#649E81" transform="translate(310,192)"/>
<path d="M0 0 C0.05384521 2.29141286 0.09272087 4.58318188 0.125 6.875 C0.14820313 8.15117187 0.17140625 9.42734375 0.1953125 10.7421875 C0 14 0 14 -2 16 C-3.32286246 11.03926578 -3.08893197 6.08888488 -3 1 C-1 0 -1 0 0 0 Z " fill="#679780" transform="translate(300,193)"/>
<path d="M0 0 C3 1 3 1 4 3 C4.084915 4.8863912 4.107193 6.77578515 4.09765625 8.6640625 C4.09443359 9.78554687 4.09121094 10.90703125 4.08789062 12.0625 C4.07951172 13.238125 4.07113281 14.41375 4.0625 15.625 C4.05798828 16.80835938 4.05347656 17.99171875 4.04882812 19.2109375 C4.03701467 22.14067507 4.02054258 25.07031272 4 28 C3.67 28 3.34 28 3 28 C3 20.41 3 12.82 3 5 C2.34 5 1.68 5 1 5 C0.67 3.35 0.34 1.7 0 0 Z " fill="#81A386" transform="translate(119,139)"/>
<path d="M0 0 C0.33 0 0.66 0 1 0 C1.04898438 1.13179687 1.09796875 2.26359375 1.1484375 3.4296875 C1.22346514 4.91148339 1.29901297 6.393253 1.375 7.875 C1.4059375 8.62136719 1.436875 9.36773437 1.46875 10.13671875 C1.55643831 14.53473188 1.55643831 14.53473188 4 18 C6.57061311 18.64767793 6.57061311 18.64767793 9 19 C9.33 18.34 9.66 17.68 10 17 C10 17.99 10 18.98 10 20 C8.52093108 20.02689216 7.04172517 20.04634621 5.5625 20.0625 C4.32693359 20.07990234 4.32693359 20.07990234 3.06640625 20.09765625 C1 20 1 20 0 19 C-0.08651611 17.58429877 -0.10704904 16.164405 -0.09765625 14.74609375 C-0.09443359 13.89208984 -0.09121094 13.03808594 -0.08789062 12.15820312 C-0.07951172 11.26037109 -0.07113281 10.36253906 -0.0625 9.4375 C-0.05798828 8.53580078 -0.05347656 7.63410156 -0.04882812 6.70507812 C-0.03700225 4.46998686 -0.0205222 2.23502563 0 0 Z " fill="#61997D" transform="translate(188,193)"/>
<path d="M0 0 C0.66 0.33 1.32 0.66 2 1 C1.67 4.3 1.34 7.6 1 11 C-1.64 11 -4.28 11 -7 11 C-7 8.36 -7 5.72 -7 3 C-6.34 3 -5.68 3 -5 3 C-4.67 4.98 -4.34 6.96 -4 9 C-2.68 9.33 -1.36 9.66 0 10 C0 6.7 0 3.4 0 0 Z " fill="#57A67F" transform="translate(347,200)"/>
<path d="M0 0 C0.99 0.33 1.98 0.66 3 1 C3.33 2.65 3.66 4.3 4 6 C3.360625 6.103125 2.72125 6.20625 2.0625 6.3125 C1.381875 6.539375 0.70125 6.76625 0 7 C-0.33 7.99 -0.66 8.98 -1 10 C-1.99 9.67 -2.98 9.34 -4 9 C-3.625 6.5625 -3.625 6.5625 -3 4 C-2.34 3.67 -1.68 3.34 -1 3 C-0.67 2.01 -0.34 1.02 0 0 Z " fill="#49AA76" transform="translate(282,190)"/>
<path d="M0 0 C4.09789669 0.37943488 6.53958935 0.69305957 10 3 C10 3.99 10 4.98 10 6 C9.34 5.649375 8.68 5.29875 8 4.9375 C3.9486909 3.67146591 1.16625445 4.29385518 -3 5 C-1.125 1.125 -1.125 1.125 0 0 Z " fill="#5EA480" transform="translate(409,188)"/>
<path d="M0 0 C0.66 0.33 1.32 0.66 2 1 C0.85569823 4.87302138 -0.23320098 8.00263439 -3 11 C-3.66 11 -4.32 11 -5 11 C-4.46884894 6.48521602 -2.63379708 3.65333143 0 0 Z " fill="#71B785" transform="translate(86,211)"/>
<path d="M0 0 C0.46921875 0.48082031 0.9384375 0.96164063 1.421875 1.45703125 C5.23500217 3.73913009 8.88039556 3.56801863 13.25 3.6875 C14.51070312 3.73874023 14.51070312 3.73874023 15.796875 3.79101562 C17.86412204 3.87323568 19.93203874 3.93830157 22 4 C22 4.33 22 4.66 22 5 C18.89738494 5.25494218 15.79325198 5.47447008 12.6875 5.6875 C11.36588867 5.79674805 11.36588867 5.79674805 10.01757812 5.90820312 C9.17001953 5.96298828 8.32246094 6.01777344 7.44921875 6.07421875 C6.66893311 6.13182373 5.88864746 6.18942871 5.0847168 6.2487793 C3 6 3 6 1.22192383 4.68286133 C0 3 0 3 0 0 Z " fill="#89BD7C" transform="translate(39,213)"/>
<path d="M0 0 C1.5 1.375 1.5 1.375 3 3 C3 3.66 3 4.32 3 5 C5.31 5 7.62 5 10 5 C10 4.34 10 3.68 10 3 C10.66 3 11.32 3 12 3 C11.67 4.32 11.34 5.64 11 7 C8.03 7 5.06 7 2 7 C0 3 0 3 0 0 Z " fill="#619C7F" transform="translate(454,206)"/>
<path d="M0 0 C0.99 0.33 1.98 0.66 3 1 C5.73289293 1.22797562 8.45042204 1.41668187 11.1875 1.5625 C11.93708984 1.60568359 12.68667969 1.64886719 13.45898438 1.69335938 C15.30578375 1.79922685 17.15286834 1.9000976 19 2 C19 2.33 19 2.66 19 3 C14.05 3 9.1 3 4 3 C3.34 4.65 2.68 6.3 2 8 C1.67 8 1.34 8 1 8 C1.020625 7.236875 1.04125 6.47375 1.0625 5.6875 C1.12942841 2.89814214 1.12942841 2.89814214 0 0 Z " fill="#65A956" transform="translate(44,177)"/>
<path d="M0 0 C0.33 0 0.66 0 1 0 C1.144375 0.78375 1.28875 1.5675 1.4375 2.375 C1.87798925 4.96421018 1.87798925 4.96421018 3 7 C5.02463255 7.65213292 5.02463255 7.65213292 7 8 C7 7.34 7 6.68 7 6 C7.66 6 8.32 6 9 6 C8.67 6.99 8.34 7.98 8 9 C5.03 9 2.06 9 -1 9 C-0.67 6.03 -0.34 3.06 0 0 Z " fill="#5E9E7F" transform="translate(291,204)"/>
<path d="M0 0 C0.66 0 1.32 0 2 0 C3.14051606 4.98283716 4.22225866 9.94468132 5 15 C2.18059121 12.45343722 0.43747986 10.8279488 0 7 C-0.03888349 4.66699067 -0.0448635 2.33290199 0 0 Z " fill="#619879" transform="translate(395,194)"/>
<path d="M0 0 C3 2 3 2 4 5 C3.01 5 2.02 5 1 5 C-1.18777466 6.9375006 -1.18777466 6.9375006 -3 9 C-3.33 8.01 -3.66 7.02 -4 6 C-3.34 6 -2.68 6 -2 6 C-1.855625 5.195625 -1.71125 4.39125 -1.5625 3.5625 C-1 1 -1 1 0 0 Z " fill="#46AD6B" transform="translate(440,190)"/>
<path d="M0 0 C2.97 0 5.94 0 9 0 C7.02 0.99 7.02 0.99 5 2 C4.34 1.67 3.68 1.34 3 1 C2.34 5.29 1.68 9.58 1 14 C0.67 14 0.34 14 0 14 C0 9.38 0 4.76 0 0 Z " fill="#2DD091" transform="translate(228,183)"/>
<path d="M0 0 C1.32 0.66 2.64 1.32 4 2 C3.34 4.31 2.68 6.62 2 9 C1.01 9 0.02 9 -1 9 C-1.09765625 2.84765625 -1.09765625 2.84765625 -1 1 C-0.67 0.67 -0.34 0.34 0 0 Z " fill="#639B7E" transform="translate(229,196)"/>
<path d="M0 0 C0.99 0 1.98 0 3 0 C3 0.66 3 1.32 3 2 C3.99 2.33 4.98 2.66 6 3 C4.68 4.32 3.36 5.64 2 7 C1.67 6.34 1.34 5.68 1 5 C0.34 5 -0.32 5 -1 5 C-0.67 3.35 -0.34 1.7 0 0 Z " fill="#58B55A" transform="translate(75,177)"/>
<path d="M0 0 C1.66611905 -0.042721 3.33382885 -0.04063832 5 0 C6 1 6 1 6.125 4.5 C6 8 6 8 5 9 C3.33382885 9.04063832 1.66611905 9.042721 0 9 C0.99 8.34 1.98 7.68 3 7 C3.5 4.5 3.5 4.5 3 2 C2.01 1.34 1.02 0.68 0 0 Z " fill="#659B81" transform="translate(355,193)"/>
<path d="M0 0 C1.15957207 3.47871621 0.77456651 4.34219645 -0.4375 7.6875 C-0.72496094 8.49574219 -1.01242187 9.30398437 -1.30859375 10.13671875 C-1.53675781 10.75160156 -1.76492188 11.36648437 -2 12 C-2.99 10.68 -3.98 9.36 -5 8 C-4.54625 7.4225 -4.0925 6.845 -3.625 6.25 C-2.15886484 4.2199667 -1.05142216 2.26460157 0 0 Z " fill="#5C9F7B" transform="translate(469,197)"/>
<path d="M0 0 C9.41002278 -0.3690205 9.41002278 -0.3690205 14 2 C13.67 2.99 13.34 3.98 13 5 C12.34 4.34 11.68 3.68 11 3 C8.34280163 2.31822002 8.34280163 2.31822002 5.375 1.875 C3.87066406 1.62363281 3.87066406 1.62363281 2.3359375 1.3671875 C1.56507813 1.24601563 0.79421875 1.12484375 0 1 C0 0.67 0 0.34 0 0 Z " fill="#38C55F" transform="translate(239,204)"/>
<path d="M0 0 C2.475 0.495 2.475 0.495 5 1 C5 1.66 5 2.32 5 3 C7.31 3.33 9.62 3.66 12 4 C12 4.33 12 4.66 12 5 C8.7 5 5.4 5 2 5 C1.34 3.35 0.68 1.7 0 0 Z " fill="#639A80" transform="translate(199,208)"/>
<path d="M0 0 C1.32 0 2.64 0 4 0 C4.33 0.99 4.66 1.98 5 3 C4.01 3.66 3.02 4.32 2 5 C2 4.34 2 3.68 2 3 C1.01 2.67 0.02 2.34 -1 2 C-0.67 1.34 -0.34 0.68 0 0 Z M0 5 C0.99 5.33 1.98 5.66 3 6 C2.01 6.66 1.02 7.32 0 8 C0 7.01 0 6.02 0 5 Z " fill="#47AC7A" transform="translate(273,202)"/>
<path d="M0 0 C0.66 0 1.32 0 2 0 C2 0.66 2 1.32 2 2 C4.97 2 7.94 2 11 2 C10.67 2.66 10.34 3.32 10 4 C6.7 4 3.4 4 0 4 C0 2.68 0 1.36 0 0 Z " fill="#5EA07F" transform="translate(236,191)"/>
<path d="M0 0 C6.93 0.495 6.93 0.495 14 1 C14 1.33 14 1.66 14 2 C12.56274129 2.16873478 11.12518162 2.33490737 9.6875 2.5 C8.88699219 2.5928125 8.08648437 2.685625 7.26171875 2.78125 C2.48625181 3.2431259 2.48625181 3.2431259 0 2 C0 1.34 0 0.68 0 0 Z " fill="#59A981" transform="translate(236,205)"/>
<path d="M0 0 C1.45922693 0.11409593 2.91740598 0.24165544 4.375 0.375 C5.59316406 0.47941406 5.59316406 0.47941406 6.8359375 0.5859375 C9 1 9 1 11 3 C10.625 5.125 10.625 5.125 10 7 C9.34 6.01 8.68 5.02 8 4 C6.05167065 2.99831469 6.05167065 2.99831469 3.875 2.3125 C2.78832031 1.93544922 2.78832031 1.93544922 1.6796875 1.55078125 C1.12539063 1.36902344 0.57109375 1.18726563 0 1 C0 0.67 0 0.34 0 0 Z " fill="#62A382" transform="translate(265,188)"/>
<path d="M0 0 C2.97 0 5.94 0 9 0 C9.33 0.66 9.66 1.32 10 2 C9.34 2.66 8.68 3.32 8 4 C7.67 3.67 7.34 3.34 7 3 C4.67182036 2.63239269 2.3381615 2.29758419 0 2 C0 1.34 0 0.68 0 0 Z " fill="#5E9779" transform="translate(465,182)"/>
<path d="M0 0 C1.125 1.6875 1.125 1.6875 2 4 C1.125 6.75 1.125 6.75 0 9 C-1.32 8.34 -2.64 7.68 -4 7 C-3.34 6.01 -2.68 5.02 -2 4 C-1.34 4 -0.68 4 0 4 C0 2.68 0 1.36 0 0 Z " fill="#58A67E" transform="translate(462,191)"/>
<path d="M0 0 C0.66 0 1.32 0 2 0 C2.75 1.75 2.75 1.75 3 4 C1.0625 6.25 1.0625 6.25 -1 8 C-1.125 2.25 -1.125 2.25 0 0 Z " fill="#66B064" transform="translate(117,140)"/>
<path d="M0 0 C0.33 0.99 0.66 1.98 1 3 C-0.62339805 4.70884005 -2.29319053 6.37446717 -4 8 C-4.66 8 -5.32 8 -6 8 C-5.8125 6.125 -5.8125 6.125 -5 4 C-2.4375 2.75 -2.4375 2.75 0 2 C0 1.34 0 0.68 0 0 Z " fill="#70B17F" transform="translate(80,205)"/>
<path d="M0 0 C0.78375 0.04125 1.5675 0.0825 2.375 0.125 C0.125 2.6875 0.125 2.6875 -2.625 5.125 C-4.9375 4.9375 -4.9375 4.9375 -6.625 4.125 C-2.625 0.125 -2.625 0.125 0 0 Z " fill="#6BAD7B" transform="translate(98.625,191.875)"/>
<path d="M0 0 C1.1875 1.5 1.1875 1.5 2 4 C1.27101296 6.78824238 0.1843275 9.37665092 -1 12 C-2.16180608 8.07240184 -1.75984959 5.02720283 -1 1 C-0.67 0.67 -0.34 0.34 0 0 Z " fill="#5C987B" transform="translate(450,199)"/>
<path d="M0 0 C1.67542976 0.28604898 3.34385343 0.61781233 5 1 C4.67 2.65 4.34 4.3 4 6 C2.35 4.35 0.7 2.7 -1 1 C-0.67 0.67 -0.34 0.34 0 0 Z " fill="#9BCB5A" transform="translate(39,182)"/>
<path d="M0 0 C-0.33 0.99 -0.66 1.98 -1 3 C-3.31 3 -5.62 3 -8 3 C-8 2.34 -8 1.68 -8 1 C-5.10765685 0.17361624 -3.11257569 0 0 0 Z " fill="#609F7E" transform="translate(413,181)"/>
<path d="M0 0 C0.66 0.33 1.32 0.66 2 1 C2 3.31 2 5.62 2 8 C0.35 8.33 -1.3 8.66 -3 9 C-2.34 8.01 -1.68 7.02 -1 6 C-0.34 6 0.32 6 1 6 C0.67 4.02 0.34 2.04 0 0 Z " fill="#669B7E" transform="translate(248,193)"/>
<path d="M0 0 C0.33 0.66 0.66 1.32 1 2 C0.01 3.485 0.01 3.485 -1 5 C-1.99 5 -2.98 5 -4 5 C-4 5.66 -4 6.32 -4 7 C-4.66 7 -5.32 7 -6 7 C-4.60667426 3.63279613 -3.0210714 2.0140476 0 0 Z " fill="#5C9B78" transform="translate(403,183)"/>
<path d="M0 0 C0.99 0 1.98 0 3 0 C3 1.32 3 2.64 3 4 C2.01 4.33 1.02 4.66 0 5 C-0.66 4.67 -1.32 4.34 -2 4 C-1.34 2.68 -0.68 1.36 0 0 Z " fill="#96B976" transform="translate(41,178)"/>
<path d="M0 0 C1.65 1.32 3.3 2.64 5 4 C4.67 4.99 4.34 5.98 4 7 C2.35 5.35 0.7 3.7 -1 2 C-0.67 1.34 -0.34 0.68 0 0 Z " fill="#61A17E" transform="translate(279,185)"/>
<path d="M0 0 C2.31 0.66 4.62 1.32 7 2 C6.67 2.66 6.34 3.32 6 4 C5.01 3.67 4.02 3.34 3 3 C3 3.66 3 4.32 3 5 C2.34 5 1.68 5 1 5 C0.67 3.35 0.34 1.7 0 0 Z " fill="#48A770" transform="translate(313,186)"/>
<path d="M0 0 C0.33 0 0.66 0 1 0 C1 1.65 1 3.3 1 5 C0.67 5 0.34 5 0 5 C0 3.35 0 1.7 0 0 Z " fill="#00FF33" transform="translate(225,200)"/>
</svg>
